<svg id="visual" viewBox="0 0 900 450" width="900" height="450" xmlns="http://www.w3.org/2000/svg" xmlns:xlink="http://www.w3.org/1999/xlink" version="1.1"><rect x="0" y="0" width="900" height="450" fill="#001122"></rect><g transform="translate(971.805859876038 385.02769496157066)"><path d="M190.2 -335.7C246 -260.1 290.4 -206.5 305.5 -147.2C320.6 -87.9 306.5 -22.9 333 73.9C359.6 170.8 426.9 299.5 398 360C369.1 420.5 244 412.7 126.9 459.5C9.9 506.3 -99.2 607.7 -218.2 626.1C-337.2 644.6 -466.2 580.2 -517.9 474.4C-569.7 368.7 -544.2 221.6 -527.1 98.1C-510.1 -25.3 -501.6 -125.2 -442.3 -180C-383.1 -234.8 -273.2 -244.4 -191 -307.9C-108.8 -371.4 -54.4 -488.7 6.4 -498.6C67.2 -508.6 134.4 -411.2 190.2 -335.7" fill="#715DF2"></path></g></svg>